<svg width="40" height="40" viewBox="0 0 40 40" fill="none" xmlns="http://www.w3.org/2000/svg">
<g clip-path="url(#clip0_11_9888)">
<path d="M28.3333 3.33333H33.3333C33.7754 3.33333 34.1993 3.50893 34.5118 3.82149C34.8244 4.13405 35 4.55797 35 5V35C35 35.442 34.8244 35.866 34.5118 36.1785C34.1993 36.4911 33.7754 36.6667 33.3333 36.6667H6.66667C6.22464 36.6667 5.80072 36.4911 5.48816 36.1785C5.17559 35.866 5 35.442 5 35V5C5 4.55797 5.17559 4.13405 5.48816 3.82149C5.80072 3.50893 6.22464 3.33333 6.66667 3.33333H11.6667V0H15V3.33333H25V0H28.3333V3.33333ZM28.3333 6.66667V10H25V6.66667H15V10H11.6667V6.66667H8.33333V33.3333H31.6667V6.66667H28.3333ZM11.6667 13.3333H28.3333V16.6667H11.6667V13.3333ZM11.6667 20H28.3333V23.3333H11.6667V20Z" fill="#567DF4"/>
</g>
<defs>
<clipPath id="clip0_11_9888">
<rect width="40" height="40" fill="white"/>
</clipPath>
</defs>
</svg>
