<svg width="40" height="40" viewBox="0 0 40 40" fill="none" xmlns="http://www.w3.org/2000/svg">
<g clip-path="url(#clip0_11_9886)">
<path d="M11.6667 8.33333V3.33333C11.6667 2.8913 11.8423 2.46738 12.1549 2.15482C12.4674 1.84226 12.8913 1.66666 13.3334 1.66666H26.6667C27.1087 1.66666 27.5327 1.84226 27.8452 2.15482C28.1578 2.46738 28.3334 2.8913 28.3334 3.33333V8.33333H35C35.4421 8.33333 35.866 8.50893 36.1786 8.82149C36.4911 9.13405 36.6667 9.55797 36.6667 10V33.3333C36.6667 33.7754 36.4911 34.1993 36.1786 34.5118C35.866 34.8244 35.4421 35 35 35H5.00004C4.55801 35 4.13409 34.8244 3.82153 34.5118C3.50897 34.1993 3.33337 33.7754 3.33337 33.3333V10C3.33337 9.55797 3.50897 9.13405 3.82153 8.82149C4.13409 8.50893 4.55801 8.33333 5.00004 8.33333H11.6667ZM6.66671 26.6667V31.6667H33.3334V26.6667H6.66671ZM6.66671 23.3333H33.3334V11.6667H6.66671V23.3333ZM15 5V8.33333H25V5H15ZM18.3334 18.3333H21.6667V21.6667H18.3334V18.3333Z" fill="#567DF4"/>
</g>
<defs>
<clipPath id="clip0_11_9886">
<rect width="40" height="40" fill="white"/>
</clipPath>
</defs>
</svg>
