<svg width="40" height="40" viewBox="0 0 40 40" fill="none" xmlns="http://www.w3.org/2000/svg">
<g clip-path="url(#clip0_11_9874)">
<path d="M28.3334 5.00001H35C35.4421 5.00001 35.866 5.1756 36.1786 5.48816C36.4911 5.80072 36.6667 6.22464 36.6667 6.66667V33.3333C36.6667 33.7754 36.4911 34.1993 36.1786 34.5118C35.866 34.8244 35.4421 35 35 35H5.00004C4.55801 35 4.13409 34.8244 3.82153 34.5118C3.50897 34.1993 3.33337 33.7754 3.33337 33.3333V6.66667C3.33337 6.22464 3.50897 5.80072 3.82153 5.48816C4.13409 5.1756 4.55801 5.00001 5.00004 5.00001H11.6667V1.66667H15V5.00001H25V1.66667H28.3334V5.00001ZM33.3334 15V8.33334H28.3334V11.6667H25V8.33334H15V11.6667H11.6667V8.33334H6.66671V15H33.3334ZM33.3334 18.3333H6.66671V31.6667H33.3334V18.3333ZM10 21.6667H18.3334V28.3333H10V21.6667Z" fill="#567DF4"/>
</g>
<defs>
<clipPath id="clip0_11_9874">
<rect width="40" height="40" fill="white"/>
</clipPath>
</defs>
</svg>
