<svg width="40" height="40" viewBox="0 0 40 40" fill="none" xmlns="http://www.w3.org/2000/svg">
<g clip-path="url(#clip0_11_9887)">
<path d="M28.3333 5H34.9999C35.4419 5 35.8659 5.17559 36.1784 5.48815C36.491 5.80071 36.6666 6.22464 36.6666 6.66666V33.3333C36.6666 33.7754 36.491 34.1993 36.1784 34.5118C35.8659 34.8244 35.4419 35 34.9999 35H4.99992C4.55789 35 4.13397 34.8244 3.82141 34.5118C3.50885 34.1993 3.33325 33.7754 3.33325 33.3333V6.66666C3.33325 6.22464 3.50885 5.80071 3.82141 5.48815C4.13397 5.17559 4.55789 5 4.99992 5H11.6666V1.66666H14.9999V5H24.9999V1.66666H28.3333V5ZM33.3333 18.3333H6.66659V31.6667H33.3333V18.3333ZM24.9999 8.33333H14.9999V11.6667H11.6666V8.33333H6.66659V15H33.3333V8.33333H28.3333V11.6667H24.9999V8.33333ZM9.99992 21.6667H13.3333V25H9.99992V21.6667ZM18.3333 21.6667H21.6666V25H18.3333V21.6667ZM26.6666 21.6667H29.9999V25H26.6666V21.6667Z" fill="#567DF4"/>
</g>
<defs>
<clipPath id="clip0_11_9887">
<rect width="40" height="40" fill="white"/>
</clipPath>
</defs>
</svg>
