<svg width="40" height="40" viewBox="0 0 40 40" fill="none" xmlns="http://www.w3.org/2000/svg">
<g clip-path="url(#clip0_11_9881)">
<path d="M20 36.6667C18.0301 36.6667 16.0796 36.2787 14.2597 35.5249C12.4398 34.771 10.7862 33.6662 9.39335 32.2733C8.00047 30.8804 6.89558 29.2268 6.14176 27.4069C5.38794 25.587 4.99995 23.6365 4.99995 21.6667C4.99995 19.6968 5.38794 17.7463 6.14176 15.9264C6.89558 14.1065 8.00047 12.4529 9.39335 11.0601C10.7862 9.66719 12.4398 8.5623 14.2597 7.80848C16.0796 7.05466 18.0301 6.66667 20 6.66667C23.9782 6.66667 27.7935 8.24702 30.6066 11.0601C33.4196 13.8731 35 17.6884 35 21.6667C35 25.6449 33.4196 29.4602 30.6066 32.2733C27.7935 35.0863 23.9782 36.6667 20 36.6667ZM20 33.3333C21.532 33.3333 23.0491 33.0316 24.4646 32.4453C25.8801 31.859 27.1662 30.9996 28.2495 29.9163C29.3329 28.8329 30.1922 27.5468 30.7785 26.1313C31.3649 24.7158 31.6666 23.1988 31.6666 21.6667C31.6666 20.1346 31.3649 18.6175 30.7785 17.202C30.1922 15.7866 29.3329 14.5004 28.2495 13.4171C27.1662 12.3337 25.8801 11.4744 24.4646 10.8881C23.0491 10.3018 21.532 10 20 10C16.9058 10 13.9383 11.2292 11.7504 13.4171C9.56245 15.605 8.33329 18.5725 8.33329 21.6667C8.33329 24.7609 9.56245 27.7283 11.7504 29.9163C13.9383 32.1042 16.9058 33.3333 20 33.3333ZM21.6666 21.6667H26.6666V25H18.3333V13.3333H21.6666V21.6667ZM2.91162 10.47L8.80329 4.57834L11.1616 6.935L5.26662 12.8283L2.91162 10.47ZM31.195 4.57834L37.0883 10.47L34.7316 12.8283L28.8383 6.935L31.1966 4.57834H31.195Z" fill="#567DF4"/>
</g>
<defs>
<clipPath id="clip0_11_9881">
<rect width="40" height="40" fill="white"/>
</clipPath>
</defs>
</svg>
