<svg width="24" height="24" viewBox="0 0 24 24" fill="none" xmlns="http://www.w3.org/2000/svg">
<path d="M9.73049 2.78835C11.0005 1.77935 12.7805 1.73935 14.0895 2.66835L14.2505 2.78835L20.3395 7.65935C21.0095 8.17835 21.4205 8.94936 21.4905 9.78835L21.5005 9.98935V18.0984C21.5005 20.1884 19.8495 21.8884 17.7805 21.9984H15.7905C14.8395 21.9794 14.0705 21.2394 14.0005 20.3094L13.9905 20.1684V17.3094C13.9905 16.9984 13.7595 16.7394 13.4505 16.6884L13.3605 16.6784H10.6895C10.3705 16.6884 10.1105 16.9184 10.0705 17.2184L10.0605 17.3094V20.1594C10.0605 20.2184 10.0495 20.2884 10.0405 20.3384L10.0305 20.3594L10.0195 20.4284C9.90049 21.2794 9.20049 21.9284 8.33049 21.9894L8.20049 21.9984H6.41049C4.32049 21.9984 2.61049 20.3594 2.50049 18.2984V9.98935C2.50949 9.13835 2.88049 8.34835 3.50049 7.79835L9.73049 2.78835ZM13.3805 3.87835C12.6205 3.26835 11.5405 3.23935 10.7405 3.76835L10.5895 3.87835L4.50949 8.77936C4.16049 9.03835 3.95049 9.42836 3.90049 9.83836L3.88949 9.99835V18.0984C3.88949 19.4284 4.92949 20.5184 6.25049 20.5984H8.20049C8.42049 20.5984 8.61049 20.4494 8.63949 20.2394L8.66049 20.0594L8.67049 20.0084V17.3094C8.67049 16.2394 9.49049 15.3694 10.5405 15.2884H13.3605C14.4295 15.2884 15.2995 16.1094 15.3805 17.1594V20.1684C15.3805 20.3784 15.5305 20.5594 15.7305 20.5984H17.5895C18.9295 20.5984 20.0195 19.5694 20.0995 18.2584L20.1105 18.0984V9.99835C20.0995 9.56936 19.9205 9.16835 19.6105 8.86935L19.4805 8.75835L13.3805 3.87835Z" fill="#A4A4A4"/>
</svg>
