<svg width="21" height="21" viewBox="0 0 21 21" fill="none" xmlns="http://www.w3.org/2000/svg">
<g clip-path="url(#clip0_10_9837)">
<path d="M17.5 19.25H15.75V17.5C15.75 16.8038 15.4734 16.1361 14.9812 15.6438C14.4889 15.1516 13.8212 14.875 13.125 14.875H7.875C7.17881 14.875 6.51113 15.1516 6.01884 15.6438C5.52656 16.1361 5.25 16.8038 5.25 17.5V19.25H3.5V17.5C3.5 16.3397 3.96094 15.2269 4.78141 14.4064C5.60188 13.5859 6.71468 13.125 7.875 13.125H13.125C14.2853 13.125 15.3981 13.5859 16.2186 14.4064C17.0391 15.2269 17.5 16.3397 17.5 17.5V19.25ZM10.5 11.375C9.81056 11.375 9.12787 11.2392 8.49091 10.9754C7.85395 10.7115 7.2752 10.3248 6.78769 9.83731C6.30018 9.3498 5.91347 8.77105 5.64963 8.13409C5.3858 7.49713 5.25 6.81444 5.25 6.125C5.25 5.43556 5.3858 4.75287 5.64963 4.11591C5.91347 3.47895 6.30018 2.9002 6.78769 2.41269C7.2752 1.92518 7.85395 1.53847 8.49091 1.27463C9.12787 1.0108 9.81056 0.875 10.5 0.875C11.8924 0.875 13.2277 1.42812 14.2123 2.41269C15.1969 3.39726 15.75 4.73261 15.75 6.125C15.75 7.51739 15.1969 8.85274 14.2123 9.83731C13.2277 10.8219 11.8924 11.375 10.5 11.375ZM10.5 9.625C11.4283 9.625 12.3185 9.25625 12.9749 8.59987C13.6313 7.9435 14 7.05326 14 6.125C14 5.19674 13.6313 4.3065 12.9749 3.65013C12.3185 2.99375 11.4283 2.625 10.5 2.625C9.57174 2.625 8.6815 2.99375 8.02513 3.65013C7.36875 4.3065 7 5.19674 7 6.125C7 7.05326 7.36875 7.9435 8.02513 8.59987C8.6815 9.25625 9.57174 9.625 10.5 9.625Z" fill="#A4A4A4"/>
</g>
<defs>
<clipPath id="clip0_10_9837">
<rect width="21" height="21" fill="white"/>
</clipPath>
</defs>
</svg>
