<svg width="32" height="32" viewBox="0 0 32 32" fill="none" xmlns="http://www.w3.org/2000/svg">
<path fill-rule="evenodd" clip-rule="evenodd" d="M7.52456 2.66666C4.84521 2.66666 2.66663 4.84521 2.66663 7.52459V10.3416C2.66663 11.1305 3.30624 11.7701 4.09519 11.7701C4.88417 11.7701 5.52376 11.1305 5.52376 10.3416V7.52459C5.52376 6.42205 6.42203 5.52379 7.52456 5.52379H10.3415C11.1305 5.52379 11.7701 4.8842 11.7701 4.09522C11.7701 3.30627 11.1305 2.66666 10.3415 2.66666H7.52456ZM21.6584 2.66666C20.8694 2.66666 20.2298 3.30629 20.2298 4.09522C20.2298 4.88418 20.8694 5.52379 21.6584 5.52379H24.4754C25.5779 5.52379 26.4762 6.42205 26.4762 7.52459V10.3416C26.4762 11.1305 27.1157 11.7701 27.9047 11.7701C28.6938 11.7701 29.3333 11.1305 29.3333 10.3416V7.52459C29.3333 4.84521 27.1547 2.66666 24.4754 2.66666H21.6584ZM4.09519 20.2298C3.30626 20.2298 2.66663 20.8694 2.66663 21.6584V24.4754C2.66663 27.1548 4.84521 29.3333 7.52456 29.3333H10.3415C11.1305 29.3333 11.7701 28.6938 11.7701 27.9048C11.7701 27.1158 11.1305 26.4762 10.3415 26.4762H7.52456C6.42205 26.4762 5.52376 25.5779 5.52376 24.4754V21.6584C5.52376 20.8694 4.88415 20.2298 4.09519 20.2298ZM27.9047 20.2298C27.1158 20.2298 26.4762 20.8694 26.4762 21.6584V24.4754C26.4762 25.5779 25.5779 26.4762 24.4754 26.4762H21.6584C20.8694 26.4762 20.2298 27.1158 20.2298 27.9048C20.2298 28.6938 20.8694 29.3333 21.6584 29.3333H24.4754C27.1547 29.3333 29.3333 27.1548 29.3333 24.4754V21.6584C29.3333 20.8694 28.6937 20.2298 27.9047 20.2298Z" fill="white"/>
<path d="M10.6374 10.7336C10.1842 10.7336 9.81689 11.1009 9.81689 11.554V13.5345C9.81689 13.9876 10.1842 14.3549 10.6374 14.3549C11.0905 14.3549 11.4578 13.9876 11.4578 13.5345V11.554C11.4578 11.1009 11.0905 10.7336 10.6374 10.7336Z" fill="white"/>
<path d="M15.8354 11.5926C15.8354 11.1182 16.2201 10.7336 16.6944 10.7336C17.1689 10.7336 17.5535 11.1182 17.5535 11.5926V16.5309C17.5535 17.6004 16.6837 18.4701 15.6142 18.4701H15.0483C14.5739 18.4701 14.1893 18.0856 14.1893 17.6112C14.1893 17.1367 14.5739 16.752 15.0483 16.752H15.6142C15.736 16.752 15.8354 16.6527 15.8354 16.5309V11.5926Z" fill="white"/>
<path d="M21.5171 10.7336C21.0639 10.7336 20.6965 11.1009 20.6965 11.554V13.5345C20.6965 13.9876 21.0639 14.3549 21.5171 14.3549C21.9701 14.3549 22.3375 13.9876 22.3375 13.5345V11.554C22.3375 11.1009 21.9701 10.7336 21.5171 10.7336Z" fill="white"/>
<path d="M19.5609 19.9894C19.9095 19.6674 20.453 19.689 20.7748 20.0375C21.0968 20.3861 21.0752 20.9295 20.7267 21.2515C19.4363 22.4433 17.7576 23.0997 16.0001 23.0997C14.2426 23.0997 12.5638 22.4433 11.2734 21.2515C10.9249 20.9295 10.9034 20.3861 11.2253 20.0375C11.5473 19.689 12.0907 19.6674 12.4392 19.9894C13.4113 20.8873 14.6757 21.3818 16.0001 21.3818C17.3245 21.3818 18.5889 20.8873 19.5609 19.9894Z" fill="white"/>
<path d="M10.6374 10.7336C10.1842 10.7336 9.81689 11.1009 9.81689 11.554V13.5345C9.81689 13.9876 10.1842 14.3549 10.6374 14.3549C11.0905 14.3549 11.4578 13.9876 11.4578 13.5345V11.554C11.4578 11.1009 11.0905 10.7336 10.6374 10.7336Z" stroke="white" stroke-width="0.4"/>
<path d="M15.8354 11.5926C15.8354 11.1182 16.2201 10.7336 16.6944 10.7336C17.1689 10.7336 17.5535 11.1182 17.5535 11.5926V16.5309C17.5535 17.6004 16.6837 18.4701 15.6142 18.4701H15.0483C14.5739 18.4701 14.1893 18.0856 14.1893 17.6112C14.1893 17.1367 14.5739 16.752 15.0483 16.752H15.6142C15.736 16.752 15.8354 16.6527 15.8354 16.5309V11.5926Z" stroke="white" stroke-width="0.4"/>
<path d="M21.5171 10.7336C21.0639 10.7336 20.6965 11.1009 20.6965 11.554V13.5345C20.6965 13.9876 21.0639 14.3549 21.5171 14.3549C21.9701 14.3549 22.3375 13.9876 22.3375 13.5345V11.554C22.3375 11.1009 21.9701 10.7336 21.5171 10.7336Z" stroke="white" stroke-width="0.4"/>
<path d="M19.5609 19.9894C19.9095 19.6674 20.453 19.689 20.7748 20.0375C21.0968 20.3861 21.0752 20.9295 20.7267 21.2515C19.4363 22.4433 17.7576 23.0997 16.0001 23.0997C14.2426 23.0997 12.5638 22.4433 11.2734 21.2515C10.9249 20.9295 10.9034 20.3861 11.2253 20.0375C11.5473 19.689 12.0907 19.6674 12.4392 19.9894C13.4113 20.8873 14.6757 21.3818 16.0001 21.3818C17.3245 21.3818 18.5889 20.8873 19.5609 19.9894Z" stroke="white" stroke-width="0.4"/>
</svg>
