<svg width="24" height="24" viewBox="0 0 24 24" fill="none" xmlns="http://www.w3.org/2000/svg">
<g clip-path="url(#clip0_22_937)">
<path d="M9 1V3H15V1H17V3H21C21.2652 3 21.5196 3.10536 21.7071 3.29289C21.8946 3.48043 22 3.73478 22 4V20C22 20.2652 21.8946 20.5196 21.7071 20.7071C21.5196 20.8946 21.2652 21 21 21H3C2.73478 21 2.48043 20.8946 2.29289 20.7071C2.10536 20.5196 2 20.2652 2 20V4C2 3.73478 2.10536 3.48043 2.29289 3.29289C2.48043 3.10536 2.73478 3 3 3H7V1H9ZM20 10H4V19H20V10ZM15.036 11.136L16.45 12.55L11.5 17.5L7.964 13.964L9.38 12.55L11.501 14.672L15.037 11.136H15.036ZM7 5H4V8H20V5H17V6H15V5H9V6H7V5Z" fill="#A4A4A4"/>
</g>
<defs>
<clipPath id="clip0_22_937">
<rect width="24" height="24" fill="white"/>
</clipPath>
</defs>
</svg>
