<svg width="24" height="24" viewBox="0 0 24 24" fill="none" xmlns="http://www.w3.org/2000/svg">
<path d="M16.5253 3C18.0392 3.01705 19.4802 3.65794 20.5126 4.77344C21.5449 5.88895 22.0786 7.38171 21.9906 8.85897L21.9893 15.0959C22.0786 16.6183 21.5449 18.111 20.5126 19.2266C19.4802 20.3421 18.0392 20.9829 16.5168 21H7.45618C4.28665 21 2 18.4385 2 15.141V8.85897C2 5.56151 4.28665 3 7.45618 3H16.5253ZM16.5084 4.52838H7.45618C5.16279 4.52838 3.51744 6.37155 3.51744 8.85897V15.141C3.51744 17.6284 5.16279 19.4716 7.45618 19.4716H16.5084C17.6073 19.4593 18.6532 18.9941 19.4026 18.1844C20.152 17.3747 20.5393 16.2911 20.4732 15.141L20.4745 8.81389C20.5393 7.70887 20.152 6.62533 19.4026 5.81562C18.6532 5.00592 17.6073 4.54072 16.5084 4.52838ZM18.024 8.63837C18.2621 8.93792 18.24 9.36261 17.9882 9.63551L17.9058 9.71255L13.7988 13.0236C12.8013 13.8067 11.4231 13.8459 10.383 13.1375L10.2217 13.0195L6.08726 9.71453C5.75904 9.45216 5.70412 8.97146 5.96461 8.64086C6.20141 8.34031 6.61736 8.26727 6.93763 8.4536L7.03057 8.51731L11.1598 11.8181C11.6228 12.1816 12.2575 12.2095 12.7408 11.9068L12.8583 11.8242L16.9576 8.5193C17.2847 8.25555 17.7622 8.30886 18.024 8.63837Z" fill="#A4A4A4"/>
</svg>
