<svg width="36" height="36" viewBox="0 0 36 36" fill="none" xmlns="http://www.w3.org/2000/svg">
<path d="M24.53 3.00061C29.5955 3.00061 32.999 6.54361 32.999 11.8326V24.1536C32.999 24.3801 32.9585 24.5826 32.9465 24.8016C32.939 24.9291 32.9405 25.0566 32.93 25.1841C32.924 25.2411 32.9075 25.2936 32.9015 25.3506C32.852 25.8216 32.7755 26.2716 32.669 26.7081C32.642 26.8251 32.6105 26.9376 32.579 27.0516C32.459 27.4746 32.318 27.8781 32.1485 28.2636C32.099 28.3716 32.045 28.4751 31.994 28.5816C31.811 28.9491 31.613 29.3016 31.3835 29.6286L31.1615 29.9166C30.923 30.2256 30.674 30.5211 30.392 30.7896C30.3005 30.8766 30.197 30.9516 30.101 31.0341C29.8115 31.2831 29.516 31.5216 29.1905 31.7256C29.0735 31.7991 28.9445 31.8531 28.8245 31.9191C28.493 32.1021 28.1585 32.2806 27.794 32.4186C27.644 32.4756 27.4775 32.5056 27.3215 32.5551C26.963 32.6661 26.609 32.7816 26.2235 32.8476C26.1265 32.8646 26.0267 32.8766 25.9254 32.886L25.31 32.9301C25.049 32.9496 24.8015 33.0006 24.53 33.0006H11.456C10.892 33.0006 10.3535 32.9436 9.83302 32.8581C9.81352 32.8551 9.79552 32.8521 9.77752 32.8491C7.74802 32.4996 6.06352 31.5201 4.88302 30.0426C4.86952 30.0426 4.86952 30.0276 4.85602 30.0141C3.66952 28.5201 2.99902 26.5116 2.99902 24.1536V11.8326C2.99902 6.54361 6.40552 3.00061 11.456 3.00061H24.53ZM24.53 5.09311H11.456C7.59052 5.09311 5.09302 7.74361 5.09302 11.8326V24.1536C5.09302 25.3011 5.30602 26.3256 5.67052 27.2121C5.71702 27.1566 8.62252 23.6136 8.63602 23.6016C9.67402 22.4166 11.6225 20.6496 14.18 21.7191C14.795 21.9741 15.335 22.3326 15.83 22.6476C16.6895 23.2221 17.195 23.4921 17.72 23.4471C17.9375 23.4171 18.1415 23.3526 18.335 23.2326C19.172 22.7166 21.5375 19.2666 21.68 19.0791C23.315 16.9491 25.835 16.3791 27.935 17.6391C28.076 17.7231 28.6516 18.118 29.2756 18.5627L29.7467 18.9016C30.2147 19.2416 30.6556 19.573 30.9065 19.7856V11.8326C30.9065 7.74361 28.409 5.09311 24.53 5.09311ZM12.7179 9.00001C13.7645 9.00001 14.7121 9.44008 15.3909 10.1422C16.0726 10.8196 16.4999 11.7533 16.4999 12.7724C16.4999 14.8049 14.7993 16.5 12.7572 16.5C10.9621 16.5 9.43161 15.1885 9.08859 13.4905C9.0319 13.2357 8.99992 12.9737 8.99992 12.703C8.99992 10.6561 10.6627 9.00001 12.7179 9.00001Z" fill="#A4A4A4"/>
</svg>
