<svg width="12" height="14" viewBox="0 0 12 14" fill="none" xmlns="http://www.w3.org/2000/svg">
<path d="M9.65685 1.98669C8.59599 0.925822 7.15714 0.329834 5.65685 0.329834C4.15656 0.329834 2.71772 0.925822 1.65685 1.98669C0.595988 3.04755 1.1178e-08 4.4864 0 5.98669C-1.1178e-08 7.48698 0.595988 8.92582 1.65685 9.98669L5.17019 13.5067C5.23216 13.5692 5.3059 13.6188 5.38714 13.6526C5.46838 13.6865 5.55551 13.7039 5.64352 13.7039C5.73153 13.7039 5.81867 13.6865 5.8999 13.6526C5.98114 13.6188 6.05488 13.5692 6.11685 13.5067L9.65685 9.95335C10.7133 8.8969 11.3068 7.46406 11.3068 5.97002C11.3068 4.47599 10.7133 3.04314 9.65685 1.98669ZM8.70352 9.00002L5.65685 12.06L2.61019 9.00002C2.00828 8.39757 1.5985 7.63019 1.43265 6.79488C1.2668 5.95958 1.35231 5.09385 1.67839 4.30714C2.00447 3.52043 2.55647 2.84805 3.26461 2.37501C3.97275 1.90196 4.80524 1.64948 5.65685 1.64948C6.50846 1.64948 7.34096 1.90196 8.0491 2.37501C8.75724 2.84805 9.30924 3.52043 9.63532 4.30714C9.96139 5.09385 10.0469 5.95958 9.88106 6.79488C9.7152 7.63019 9.30542 8.39757 8.70352 9.00002ZM3.65685 3.94002C3.11866 4.47987 2.81645 5.21107 2.81645 5.97335C2.81645 6.73564 3.11866 7.46684 3.65685 8.00669C4.05669 8.40721 4.56591 8.68074 5.12062 8.79296C5.67533 8.90517 6.25082 8.85108 6.7749 8.63746C7.29898 8.42384 7.74831 8.06021 8.06651 7.59219C8.38471 7.12417 8.55761 6.5726 8.56352 6.00669C8.56652 5.62882 8.49374 5.25419 8.34946 4.90495C8.20518 4.5557 7.99234 4.23893 7.72352 3.97335C7.4593 3.70307 7.14424 3.48771 6.79647 3.33967C6.4487 3.19162 6.07508 3.11381 5.69712 3.11071C5.31916 3.10761 4.94432 3.17929 4.59417 3.32161C4.24402 3.46394 3.92547 3.67411 3.65685 3.94002ZM6.78352 7.06002C6.53088 7.31652 6.19699 7.47729 5.83894 7.51486C5.48088 7.55242 5.1209 7.46445 4.82053 7.26597C4.52015 7.0675 4.29805 6.77085 4.19219 6.42674C4.08633 6.08264 4.10329 5.71245 4.24016 5.37946C4.37703 5.04647 4.62532 4.77137 4.94258 4.60118C5.25983 4.43099 5.62636 4.37629 5.97948 4.44643C6.3326 4.51657 6.65039 4.70719 6.87853 4.98571C7.10666 5.26422 7.23096 5.61333 7.23019 5.97335C7.22049 6.38487 7.04785 6.77571 6.75019 7.06002H6.78352Z" fill="white"/>
</svg>
