<svg width="48" height="48" viewBox="0 0 48 48" fill="none" xmlns="http://www.w3.org/2000/svg">
<rect x="0.75" y="0.75" width="46.5" height="46.5" rx="13.25" stroke="white" stroke-width="1.5"/>
<path d="M26.608 31.6906C26.9045 31.9321 26.9515 32.3713 26.7129 32.6715C26.5366 32.8935 26.3327 33.0922 26.1167 33.255C25.3891 33.826 24.464 34.0849 23.5453 33.9754C22.6258 33.8659 21.787 33.3962 21.2146 32.6689C20.9774 32.3676 21.0265 31.9286 21.3242 31.6885C21.6219 31.4484 22.0555 31.4981 22.2927 31.7995C22.6379 32.2381 23.1467 32.523 23.7064 32.5896C24.2669 32.6564 24.8307 32.4986 25.2826 32.1443C25.4158 32.0437 25.5355 31.927 25.6389 31.7969C25.8775 31.4967 26.3114 31.4491 26.608 31.6906ZM17.1521 20.9997L17.1644 20.4039C17.1732 20.1491 17.1869 19.9125 17.2068 19.681C17.5065 16.4446 20.5956 14 23.9648 14H24.0361C27.4034 14 30.4934 16.4429 30.8034 19.6854C30.8212 19.8915 30.8288 20.0746 30.8311 20.3321L30.832 21.1198C30.8327 21.1916 30.8339 21.2547 30.8358 21.3135L30.845 21.5098L30.8896 21.6969C31.0303 22.218 31.2776 22.7052 31.6162 23.1282L31.7669 23.3055L31.8286 23.3847C32.2348 23.9917 32.4668 24.698 32.5 25.4587L32.499 25.862C32.4707 26.763 32.1399 27.6331 31.5338 28.3582C30.7311 29.2101 29.6434 29.7393 28.4873 29.8457C25.502 30.1699 22.49 30.1699 19.513 29.8466C18.349 29.7346 17.2644 29.2069 16.4266 28.3223C15.8088 27.5691 15.4804 26.6208 15.5009 25.6624L15.5017 25.4242C15.5374 24.6955 15.768 23.9898 16.1694 23.3802L16.2365 23.2938C16.7052 22.7799 17.0257 22.151 17.1647 21.4731L17.1497 21.534L17.1521 20.9997ZM24.0361 15.3953H23.9648C21.2665 15.3953 18.808 17.3409 18.5797 19.8068C18.568 19.9423 18.5587 20.0821 18.5514 20.2292L18.5353 20.6956L18.5288 21.6149L18.5144 21.7567C18.3244 22.683 17.8873 23.5409 17.2493 24.2404L17.2986 24.1833L17.2104 24.3291C17.0454 24.6265 16.9389 24.9495 16.8968 25.2682L16.8794 25.4587L16.8792 25.6774C16.8657 26.3142 17.0809 26.9356 17.4537 27.3931C18.0288 27.9985 18.8068 28.377 19.6517 28.4583C22.5393 28.7719 25.4527 28.7719 28.3514 28.4572C29.1871 28.3802 29.9645 28.002 30.5084 27.4267C30.92 26.933 31.1375 26.3097 31.1216 25.6536L31.1224 25.4901C31.1013 25.0186 30.951 24.5613 30.6873 24.1672L30.7026 24.1926L30.5647 24.0309C30.0893 23.4441 29.744 22.7635 29.5517 22.034L29.4868 21.7582L29.4739 21.6655C29.4642 21.5301 29.4585 21.4098 29.4555 21.2651L29.4528 20.3605C29.4509 20.1304 29.4447 19.9756 29.4307 19.8133C29.1944 17.3408 26.7336 15.3953 24.0361 15.3953Z" fill="white"/>
</svg>
