<svg width="24" height="24" viewBox="0 0 24 24" fill="none" xmlns="http://www.w3.org/2000/svg">
<path d="M11.8724 1.9997C14.7265 1.9997 17.0544 4.25637 17.169 7.08232L17.1734 7.3008L17.1741 8.8769C18.9503 9.49374 20.2252 11.182 20.2252 13.1686V17.4576C20.2252 19.9665 18.1918 21.9996 15.6832 21.9996H8.04224C5.53372 21.9996 3.50024 19.9665 3.50024 17.4576V13.1686C3.50024 11.1816 4.77565 9.49311 6.55236 8.87655L6.55244 7.27752C6.56526 4.34952 8.9483 1.987 11.8724 1.9997ZM15.6832 10.1266H8.04224C6.36208 10.1266 5.00024 11.4882 5.00024 13.1686V17.4576C5.00024 19.138 6.36208 20.4996 8.04224 20.4996H15.6832C17.3634 20.4996 18.7252 19.138 18.7252 17.4576V13.1686C18.7252 11.4882 17.3634 10.1266 15.6832 10.1266ZM11.8629 13.4527C12.2426 13.4527 12.5564 13.7349 12.6061 14.1009L12.6129 14.2027V16.4237C12.6129 16.8379 12.2772 17.1737 11.8629 17.1737C11.4832 17.1737 11.1695 16.8915 11.1198 16.5255L11.1129 16.4237V14.2027C11.1129 13.7885 11.4487 13.4527 11.8629 13.4527ZM11.8692 3.49975C9.83579 3.49088 8.16879 5.08026 8.05824 7.08549L8.05244 7.2808L8.05224 8.62565H15.6732L15.6734 7.3008C15.6734 5.202 13.9712 3.49976 11.8692 3.49975Z" fill="#A4A4A4"/>
</svg>
