<svg width="48" height="48" viewBox="0 0 48 48" fill="none" xmlns="http://www.w3.org/2000/svg">
<path fill-rule="evenodd" clip-rule="evenodd" d="M33.6828 22.326C33.6755 22.3419 33.6682 22.3578 33.6615 22.374C33.6546 22.3908 33.6492 22.4082 33.6438 22.4257C33.6351 22.454 33.6263 22.4822 33.6115 22.507C33.5819 22.556 33.5432 22.5972 33.5045 22.6385C33.4934 22.6502 33.4823 22.662 33.4715 22.674C33.4594 22.6865 33.4487 22.7003 33.438 22.714C33.423 22.7331 33.4081 22.7523 33.3895 22.768C33.3335 22.8137 33.2687 22.8455 33.2043 22.8772C33.1997 22.8795 33.1951 22.8817 33.1905 22.884C33.1768 22.8906 33.1639 22.8989 33.1509 22.9073C33.1325 22.9191 33.114 22.931 33.0935 22.938C32.9855 22.978 32.8705 23 32.7515 23C32.6975 23 32.6415 22.996 32.5865 22.986L28.3365 22.281C27.7915 22.191 27.4235 21.676 27.5135 21.131C27.6035 20.587 28.1175 20.214 28.6635 20.309L30.3075 20.581C29.0625 18.395 26.6855 17 24.0695 17C21.1105 17 18.5035 18.718 17.4265 21.375C17.2695 21.765 16.8945 22 16.4995 22C16.3745 22 16.2475 21.977 16.1245 21.927C15.6125 21.72 15.3655 21.137 15.5735 20.625C16.9575 17.208 20.2925 15 24.0695 15C27.4815 15 30.5825 16.87 32.1475 19.788L32.5165 17.815C32.6185 17.273 33.1425 16.914 33.6835 17.018C34.2265 17.119 34.5845 17.642 34.4825 18.185L33.7335 22.185C33.7239 22.236 33.7033 22.281 33.6828 22.326ZM30.5734 26.6252C30.7804 26.1122 31.3644 25.8662 31.8754 26.0732C32.3874 26.2802 32.6344 26.8632 32.4264 27.3752C31.0424 30.7922 27.7074 33.0002 23.9304 33.0002C20.5184 33.0002 17.4174 31.1302 15.8524 28.2122L15.4824 30.1842C15.3934 30.6652 14.9734 31.0002 14.5004 31.0002C14.4394 31.0002 14.3774 30.9942 14.3154 30.9822C13.7724 30.8812 13.4154 30.3582 13.5174 29.8152L14.2664 25.8152C14.274 25.7759 14.2908 25.7411 14.3077 25.706C14.3175 25.6858 14.3273 25.6655 14.3354 25.6442C14.3433 25.6243 14.3502 25.6037 14.3571 25.583C14.3721 25.5383 14.3871 25.4935 14.4124 25.4552C14.4272 25.4324 14.4464 25.4142 14.4659 25.3959C14.478 25.3844 14.4902 25.3729 14.5014 25.3602C14.5102 25.35 14.5189 25.3397 14.5276 25.3295C14.5752 25.2734 14.6224 25.2178 14.6824 25.1772C14.6883 25.1729 14.6953 25.1703 14.7023 25.1678C14.7083 25.1656 14.7143 25.1634 14.7194 25.1602C14.8164 25.0972 14.9204 25.0482 15.0354 25.0232C15.0424 25.0216 15.0497 25.022 15.057 25.0224C15.0632 25.0228 15.0694 25.0231 15.0754 25.0222C15.1854 25.0042 15.2964 24.9932 15.4134 25.0132L19.6634 25.7192C20.2084 25.8082 20.5764 26.3242 20.4864 26.8692C20.4054 27.3582 19.9814 27.7052 19.5004 27.7052C19.4464 27.7052 19.3914 27.7012 19.3364 27.6912L17.6924 27.4192C18.9374 29.6052 21.3144 31.0002 23.9304 31.0002C26.8894 31.0002 29.4964 29.2822 30.5734 26.6252Z" fill="#231F20"/>
<mask id="mask0_19_338" style="mask-type:luminance" maskUnits="userSpaceOnUse" x="13" y="15" width="22" height="19">
<path fill-rule="evenodd" clip-rule="evenodd" d="M33.6828 22.326C33.6755 22.3419 33.6682 22.3578 33.6615 22.374C33.6546 22.3908 33.6492 22.4082 33.6438 22.4257C33.6351 22.454 33.6263 22.4822 33.6115 22.507C33.5819 22.556 33.5432 22.5972 33.5045 22.6385C33.4934 22.6502 33.4823 22.662 33.4715 22.674C33.4594 22.6865 33.4487 22.7003 33.438 22.714C33.423 22.7331 33.4081 22.7523 33.3895 22.768C33.3335 22.8137 33.2687 22.8455 33.2043 22.8772C33.1997 22.8795 33.1951 22.8817 33.1905 22.884C33.1768 22.8906 33.1639 22.8989 33.1509 22.9073C33.1325 22.9191 33.114 22.931 33.0935 22.938C32.9855 22.978 32.8705 23 32.7515 23C32.6975 23 32.6415 22.996 32.5865 22.986L28.3365 22.281C27.7915 22.191 27.4235 21.676 27.5135 21.131C27.6035 20.587 28.1175 20.214 28.6635 20.309L30.3075 20.581C29.0625 18.395 26.6855 17 24.0695 17C21.1105 17 18.5035 18.718 17.4265 21.375C17.2695 21.765 16.8945 22 16.4995 22C16.3745 22 16.2475 21.977 16.1245 21.927C15.6125 21.72 15.3655 21.137 15.5735 20.625C16.9575 17.208 20.2925 15 24.0695 15C27.4815 15 30.5825 16.87 32.1475 19.788L32.5165 17.815C32.6185 17.273 33.1425 16.914 33.6835 17.018C34.2265 17.119 34.5845 17.642 34.4825 18.185L33.7335 22.185C33.7239 22.236 33.7033 22.281 33.6828 22.326ZM30.5734 26.6252C30.7804 26.1122 31.3644 25.8662 31.8754 26.0732C32.3874 26.2802 32.6344 26.8632 32.4264 27.3752C31.0424 30.7922 27.7074 33.0002 23.9304 33.0002C20.5184 33.0002 17.4174 31.1302 15.8524 28.2122L15.4824 30.1842C15.3934 30.6652 14.9734 31.0002 14.5004 31.0002C14.4394 31.0002 14.3774 30.9942 14.3154 30.9822C13.7724 30.8812 13.4154 30.3582 13.5174 29.8152L14.2664 25.8152C14.274 25.7759 14.2908 25.7411 14.3077 25.706C14.3175 25.6858 14.3273 25.6655 14.3354 25.6442C14.3433 25.6243 14.3502 25.6037 14.3571 25.583C14.3721 25.5383 14.3871 25.4935 14.4124 25.4552C14.4272 25.4324 14.4464 25.4142 14.4659 25.3959C14.478 25.3844 14.4902 25.3729 14.5014 25.3602C14.5102 25.35 14.5189 25.3397 14.5276 25.3295C14.5752 25.2734 14.6224 25.2178 14.6824 25.1772C14.6883 25.1729 14.6953 25.1703 14.7023 25.1678C14.7083 25.1656 14.7143 25.1634 14.7194 25.1602C14.8164 25.0972 14.9204 25.0482 15.0354 25.0232C15.0424 25.0216 15.0497 25.022 15.057 25.0224C15.0632 25.0228 15.0694 25.0231 15.0754 25.0222C15.1854 25.0042 15.2964 24.9932 15.4134 25.0132L19.6634 25.7192C20.2084 25.8082 20.5764 26.3242 20.4864 26.8692C20.4054 27.3582 19.9814 27.7052 19.5004 27.7052C19.4464 27.7052 19.3914 27.7012 19.3364 27.6912L17.6924 27.4192C18.9374 29.6052 21.3144 31.0002 23.9304 31.0002C26.8894 31.0002 29.4964 29.2822 30.5734 26.6252Z" fill="white"/>
</mask>
<g mask="url(#mask0_19_338)">
<rect x="12" y="12" width="24" height="24" fill="#F8F8F8"/>
</g>
<rect opacity="0.5" x="0.75" y="0.75" width="46.5" height="46.5" rx="13.25" stroke="#F5F5F5" stroke-width="1.5"/>
</svg>
